<svg width="14" height="14" viewBox="0 0 14 14" fill="none" xmlns="http://www.w3.org/2000/svg">
<path fill-rule="evenodd" clip-rule="evenodd" d="M4.35456 0.621843C5.03881 0.590343 5.25698 0.583344 6.99998 0.583344C8.74298 0.583344 8.96115 0.590927 9.64481 0.621843C10.3285 0.65276 10.7951 0.761844 11.2035 0.919927C11.6311 1.08151 12.019 1.33409 12.3398 1.66076C12.6665 1.98101 12.9185 2.36834 13.0795 2.79651C13.2381 3.20484 13.3466 3.67151 13.3781 4.35401C13.4096 5.03943 13.4166 5.25759 13.4166 7.00001C13.4166 8.74301 13.4091 8.96118 13.3781 9.64543C13.3472 10.3279 13.2381 10.7946 13.0795 11.2029C12.9185 11.6311 12.6661 12.0191 12.3398 12.3398C12.019 12.6665 11.6311 12.9185 11.2035 13.0795C10.7951 13.2382 10.3285 13.3467 9.64598 13.3782C8.96115 13.4097 8.74298 13.4167 6.99998 13.4167C5.25698 13.4167 5.03881 13.4091 4.35456 13.3782C3.67206 13.3473 3.2054 13.2382 2.79706 13.0795C2.36885 12.9185 1.98087 12.6661 1.66015 12.3398C1.3337 12.0194 1.08108 11.6316 0.919896 11.2035C0.761813 10.7952 0.653313 10.3285 0.621813 9.64601C0.590313 8.96059 0.583313 8.74243 0.583313 7.00001C0.583313 5.25701 0.590896 5.03884 0.621813 4.35518C0.65273 3.67151 0.761813 3.20484 0.919896 2.79651C1.08132 2.36839 1.33413 1.98061 1.66073 1.66018C1.981 1.3338 2.36859 1.08119 2.79648 0.919927C3.20481 0.761844 3.67148 0.653343 4.35398 0.621843H4.35456ZM9.5929 1.77684C8.91623 1.74593 8.71323 1.73951 6.99998 1.73951C5.28673 1.73951 5.08373 1.74593 4.40706 1.77684C3.78115 1.80543 3.44165 1.90984 3.21531 1.99793C2.91606 2.11459 2.70198 2.25284 2.4774 2.47743C2.26451 2.68454 2.10067 2.93667 1.9979 3.21534C1.90981 3.44168 1.8054 3.78118 1.77681 4.40709C1.7459 5.08376 1.73948 5.28676 1.73948 7.00001C1.73948 8.71326 1.7459 8.91626 1.77681 9.59293C1.8054 10.2188 1.90981 10.5583 1.9979 10.7847C2.10056 11.0629 2.26448 11.3155 2.4774 11.5226C2.68448 11.7355 2.93706 11.8994 3.21531 12.0021C3.44165 12.0902 3.78115 12.1946 4.40706 12.2232C5.08373 12.2541 5.28615 12.2605 6.99998 12.2605C8.71381 12.2605 8.91623 12.2541 9.5929 12.2232C10.2188 12.1946 10.5583 12.0902 10.7846 12.0021C11.0839 11.8854 11.298 11.7472 11.5226 11.5226C11.7355 11.3155 11.8994 11.0629 12.0021 10.7847C12.0901 10.5583 12.1946 10.2188 12.2231 9.59293C12.2541 8.91626 12.2605 8.71326 12.2605 7.00001C12.2605 5.28676 12.2541 5.08376 12.2231 4.40709C12.1946 3.78118 12.0901 3.44168 12.0021 3.21534C11.8854 2.91609 11.7471 2.70201 11.5226 2.47743C11.3154 2.26455 11.0633 2.10072 10.7846 1.99793C10.5583 1.90984 10.2188 1.80543 9.5929 1.77684V1.77684ZM6.1804 8.97809C6.63811 9.16863 7.14778 9.19434 7.62235 9.05085C8.09693 8.90735 8.50696 8.60354 8.78242 8.19132C9.05788 7.77909 9.18168 7.28402 9.13267 6.79065C9.08367 6.29729 8.8649 5.83624 8.51373 5.48626C8.28987 5.26254 8.01919 5.09123 7.72117 4.98468C7.42316 4.87812 7.10523 4.83897 6.79027 4.87004C6.47531 4.9011 6.17115 5.00161 5.8997 5.16434C5.62824 5.32706 5.39625 5.54794 5.22041 5.81109C5.04457 6.07424 4.92926 6.3731 4.88278 6.68615C4.8363 6.99921 4.85982 7.31868 4.95163 7.62156C5.04344 7.92444 5.20126 8.2032 5.41373 8.43776C5.62621 8.67233 5.88804 8.85687 6.1804 8.97809ZM4.66781 4.66784C4.97408 4.36158 5.33767 4.11864 5.73782 3.95289C6.13797 3.78714 6.56686 3.70183 6.99998 3.70183C7.4331 3.70183 7.86199 3.78714 8.26214 3.95289C8.66229 4.11864 9.02588 4.36158 9.33215 4.66784C9.63841 4.97411 9.88135 5.3377 10.0471 5.73785C10.2129 6.138 10.2982 6.56689 10.2982 7.00001C10.2982 7.43313 10.2129 7.86202 10.0471 8.26217C9.88135 8.66232 9.63841 9.02591 9.33215 9.33218C8.71362 9.95071 7.87471 10.2982 6.99998 10.2982C6.12525 10.2982 5.28634 9.95071 4.66781 9.33218C4.04928 8.71365 3.7018 7.87474 3.7018 7.00001C3.7018 6.12528 4.04928 5.28637 4.66781 4.66784V4.66784ZM11.0296 4.19301C11.1055 4.12142 11.1663 4.03532 11.2083 3.93983C11.2503 3.84433 11.2728 3.74138 11.2743 3.63705C11.2758 3.53273 11.2564 3.42916 11.2172 3.33248C11.178 3.2358 11.1197 3.14797 11.046 3.0742C10.9722 3.00042 10.8844 2.9422 10.7877 2.90298C10.691 2.86376 10.5874 2.84433 10.4831 2.84585C10.3788 2.84737 10.2758 2.86981 10.1803 2.91183C10.0848 2.95386 9.99874 3.01462 9.92715 3.09051C9.78791 3.23811 9.71168 3.43416 9.71464 3.63705C9.7176 3.83994 9.79951 4.03369 9.94299 4.17717C10.0865 4.32065 10.2802 4.40256 10.4831 4.40552C10.686 4.40848 10.882 4.33225 11.0296 4.19301V4.19301Z" fill="black"/>
</svg>
