<svg width="14" height="14" viewBox="0 0 14 14" fill="none" xmlns="http://www.w3.org/2000/svg">
<path fill-rule="evenodd" clip-rule="evenodd" d="M5.50027 5.23192H7.66677V6.31109C7.97885 5.69042 8.77919 5.13276 9.98144 5.13276C12.2862 5.13276 12.8334 6.36826 12.8334 8.63509V12.8333H10.5V9.15134C10.5 7.86042 10.1879 7.13242 9.39344 7.13242C8.29152 7.13242 7.8336 7.91701 7.8336 9.15075V12.8333H5.50027V5.23192V5.23192ZM1.49919 12.7342H3.83252V5.13276H1.49919V12.7342V12.7342ZM4.16677 2.65417C4.16686 2.84975 4.12807 3.04339 4.05266 3.22385C3.97726 3.4043 3.86673 3.56797 3.72752 3.70534C3.44542 3.9857 3.06358 4.14264 2.66585 4.14167C2.26883 4.14141 1.88787 3.98487 1.60535 3.70592C1.46664 3.56809 1.3565 3.40424 1.28122 3.22376C1.20595 3.04328 1.16702 2.84972 1.16669 2.65417C1.16669 2.25926 1.32419 1.88126 1.60594 1.60242C1.8882 1.3231 2.26933 1.1665 2.66644 1.16667C3.06427 1.16667 3.44577 1.32359 3.72752 1.60242C4.00869 1.88126 4.16677 2.25926 4.16677 2.65417Z" fill="black"/>
</svg>
