<?xml version="1.0" encoding="utf-8"?>
<!-- Generator: Adobe Illustrator 25.0.0, SVG Export Plug-In . SVG Version: 6.00 Build 0)  -->
<svg version="1.1" id="Layer_1" xmlns="http://www.w3.org/2000/svg" xmlns:xlink="http://www.w3.org/1999/xlink" x="0px" y="0px"
	 viewBox="0 0 1440 375" style="enable-background:new 0 0 1440 375;" xml:space="preserve">
<style type="text/css">
	.st0{fill:#FFFFFF;fill-opacity:0.25;}
</style>
<path class="st0" d="M1391.8,315v-132c-21.7-84.8-73.2-55.3-96.2-30l-110.6,107.6V39c-34.2-65.9-77.3-33.6-94.6-9.2L932.9,243.3
	c0,0-65.8,71.2-79,71.2h-99.4l-761-0.2v60.6l716.7,0.2h159.6c40.5,0,85.3-53.9,102.6-79.8L1126.8,93l-8,213.5
	c22.7,67.2,65.3,48,83.8,30L1332,210.1v96.4c3.8,68.5,64.8,68.5,94.7,68.5H1676v-55L1391.8,315z"/>
</svg>
