<?xml version="1.0" encoding="utf-8"?>
<!-- Generator: Adobe Illustrator 25.2.0, SVG Export Plug-In . SVG Version: 6.00 Build 0)  -->
<svg version="1.1" id="Layer_1" xmlns="http://www.w3.org/2000/svg" xmlns:xlink="http://www.w3.org/1999/xlink" x="0px" y="0px"
	 viewBox="0 0 195 34" style="enable-background:new 0 0 195 34;" xml:space="preserve">
<style type="text/css">
	.st0{fill-rule:evenodd;clip-rule:evenodd;}
	.st1{fill-rule:evenodd;clip-rule:evenodd;fill:url(#SVGID_1_);}
</style>
<desc>Created with Sketch.</desc>
<g>
	<path class="st0" d="M42.7,27.3h2.9V15.4l5.2,7.8h0.1l5.2-7.8v11.9H59V10.7h-3.1l-5.1,7.9l-5.1-7.9h-3.1V27.3L42.7,27.3z
		 M67.4,27.3h12.4v-2.6h-9.5v-4.5h8.3v-2.6h-8.3v-4.3h9.4v-2.6H67.4V27.3L67.4,27.3z M93.3,27.5c3.5,0,5.9-1.9,5.9-5v0
		c0-2.8-1.8-4-5.3-4.9c-3.2-0.8-4-1.3-4-2.6v0c0-1.1,1-2,2.7-2c1.5,0,3,0.6,4.5,1.7l1.6-2.2c-1.7-1.4-3.6-2.1-6-2.1
		c-3.3,0-5.7,2-5.7,4.8v0c0,3.1,2,4.1,5.5,5c3.1,0.7,3.7,1.4,3.7,2.5v0c0,1.2-1.1,2.1-2.9,2.1c-2,0-3.7-0.8-5.2-2.2l-1.8,2.1
		C88.3,26.6,90.7,27.5,93.3,27.5L93.3,27.5z M112.3,27.5c3.5,0,5.9-1.9,5.9-5v0c0-2.8-1.8-4-5.3-4.9c-3.2-0.8-4-1.3-4-2.6v0
		c0-1.1,1-2,2.7-2c1.5,0,3,0.6,4.5,1.7l1.6-2.2c-1.7-1.4-3.6-2.1-6-2.1c-3.3,0-5.7,2-5.7,4.8v0c0,3.1,2,4.1,5.5,5
		c3.1,0.7,3.7,1.4,3.7,2.5v0c0,1.2-1.1,2.1-2.9,2.1c-2,0-3.7-0.8-5.2-2.2l-1.8,2.1C107.4,26.6,109.8,27.5,112.3,27.5L112.3,27.5z
		 M130,27.3h2.9v-6.6l6.6-10h-3.3l-4.7,7.3l-4.6-7.3h-3.5l6.6,10.1V27.3L130,27.3z M146.1,27.3h1.6v-2h-1.6V27.3L146.1,27.3z
		 M156.2,27.3h1.2v-7.5h9.4v-1.1h-9.4v-6.8h10.5v-1.1h-11.7V27.3L156.2,27.3z M175.8,27.3h1.2V12.9l6.6,9.6h0.1l6.6-9.6v14.4h1.2
		V10.7h-1.2l-6.7,9.8l-6.7-9.8h-1.2V27.3z"/>
	<g>
		<polygon class="st0" points="21.3,23.4 21.3,29.8 16.3,29.8 16.3,20.5 29,13.2 29,18.9 		"/>
		<linearGradient id="SVGID_1_" gradientUnits="userSpaceOnUse" x1="3.4977" y1="29.7731" x2="29.0136" y2="4.2269">
			<stop  offset="0" style="stop-color:#3090CF"/>
			<stop  offset="0.48" style="stop-color:#41439B"/>
			<stop  offset="1" style="stop-color:#E73B7B"/>
		</linearGradient>
		<path class="st1" d="M16.3,11.6L3.5,4.2v5.7v19.8h5v-17l7.8,4.5L29,9.9V4.2L16.3,11.6L16.3,11.6z M29,22.1v7.6h-5V25L29,22.1z"/>
	</g>
</g>
</svg>
